<svg width="73" height="63" viewBox="0 0 73 63" fill="none" xmlns="http://www.w3.org/2000/svg">
<g id="Gloria">
<path fill-rule="evenodd" clip-rule="evenodd" d="M32 60L10.5 41.5C10.5 41.5 1.38215 31.4929 0.499999 23.5C-0.176361 17.3717 -7.15256e-07 12 3.5 8C7 4 7.5 2.6875 16.5 1C25.5 -0.687499 36.5 9 36.5 9C36.5 9 45.8392 1.05932 53 1C59.82 0.943508 64.7841 2.63886 69 8C72.8359 12.878 73.1195 17.3255 72.5 23.5C71.6875 31.5973 65.5 38 62 41.5C58.5 45 41 60 41 60C41 60 38.6121 63 36.5 63C34.3879 63 32 60 32 60ZM63 31C58.5 37 36.5 55.5 36.5 55.5C36.5 55.5 15.5 39 10.5 31C5.5 23 4.41687 12.9774 12 8.5C17.5893 5.19987 23.2955 6.62131 28.5 10.5C30.9456 12.3226 33.5 16.5 33.5 16.5C33.5 16.5 34.8431 19.5 36.5 19.5C38.1569 19.5 39.5 16.5 39.5 16.5C39.5 16.5 42.0471 12.3128 44.5 10.5C49.5642 6.75749 54.9713 5.48576 60.5 8.5C68.2622 12.7319 67.5 25 63 31Z" fill="white"/>
<path d="M36.5 26.5C38.5756 26.4902 40.1381 28.4289 40 30.5C39.8714 32.4287 38.433 33.9908 36.5 34C34.4244 34.0098 32.8619 32.0711 33 30C33.1286 28.0713 34.567 26.5092 36.5 26.5Z" fill="white"/>
</g>
</svg>
