<svg width="379" height="63" viewBox="0 0 379 63" fill="none" xmlns="http://www.w3.org/2000/svg">
<g id="Gloria">
<path d="M86 0.5H95.5V54.5H113.5V63H86V0.5Z" fill="#612368"/>
<path d="M50 19L56.5 13C56.5 13 48.9131 4.86177 42.5 2.5C33.8803 -0.674398 27.3318 -0.367458 19 3.5C10.0862 7.63764 4.00001 14.5 2.00001 22.5C-3.57628e-07 30.5 0 35.5 2.5 43C5 50.5 9.5 54.5 16 58.5C22.5 62.5 36.4959 64.9645 46.5 58.5C52.6996 54.4939 55.9558 50.5926 58 43.5C58.872 40.4746 58.8502 38.6449 59 35.5C59.0929 33.5496 59 30.5 59 30.5H34.5V39H49.5C49.5 39 47 50.3333 39 53C31 55.6667 26 54 20.5 51C15 48 10.7891 41.7632 10 34C8.99301 24.0927 13.1287 16.0243 22 11.5C27.7639 8.56046 32.5 8.5 38.5 10C44.5 11.5 50 19 50 19Z" fill="#612368"/>
<path fill-rule="evenodd" clip-rule="evenodd" d="M161 60L139.5 41.5C139.5 41.5 130.382 31.4929 129.5 23.5C128.824 17.3717 129 12 132.5 8C136 4 136.5 2.6875 145.5 1C154.5 -0.6875 165.5 9 165.5 9C165.5 9 174.839 1.05932 182 1C188.82 0.943508 193.784 2.63886 198 8C201.836 12.878 202.12 17.3255 201.5 23.5C200.688 31.5973 194.5 38 191 41.5C187.5 45 170 60 170 60C170 60 167.612 63 165.5 63C163.388 63 161 60 161 60ZM192 31C187.5 37 165.5 55.5 165.5 55.5C165.5 55.5 144.5 39 139.5 31C134.5 23 133.417 12.9774 141 8.5C146.589 5.19987 152.296 6.62131 157.5 10.5C159.946 12.3226 162.5 16.5 162.5 16.5C162.5 16.5 163.843 19.5 165.5 19.5C167.157 19.5 168.5 16.5 168.5 16.5C168.5 16.5 171.047 12.3128 173.5 10.5C178.564 6.75749 183.971 5.48576 189.5 8.5C197.262 12.7319 196.5 25 192 31Z" fill="#612368"/>
<path d="M165.5 26.5C167.576 26.4902 169.138 28.4289 169 30.5C168.871 32.4287 167.433 33.9908 165.5 34C163.424 34.0098 161.862 32.0711 162 30C162.129 28.0713 163.567 26.5092 165.5 26.5Z" fill="#612368"/>
<path fill-rule="evenodd" clip-rule="evenodd" d="M224 63V0.5C224 0.5 237.5 1 241 1C244.5 1 254.5 2 257.5 12C260.5 22 259 25 255.5 30C252 35 245.5 36.5 245.5 36.5L264.5 63H253L235 37.5H233.5V63H224ZM233.5 29.5V9.5C233.5 9.5 250 7.5 250 19C250 30.5 233.5 29.5 233.5 29.5Z" fill="#612368"/>
<path d="M288.5 1V63H298V1H288.5Z" fill="#612368"/>
<path fill-rule="evenodd" clip-rule="evenodd" d="M320.5 63L350.5 0L378.5 63H368.5L362.5 48.5H337L330.5 63H320.5ZM359 40.5L350 20.5L341 40.5H359Z" fill="#612368"/>
</g>
</svg>
